<svg id="Layer_1" data-name="Layer 1" xmlns="http://www.w3.org/2000/svg" xmlns:xlink="http://www.w3.org/1999/xlink" viewBox="0 0 299.98 55.11"><defs><style>.cls-1{fill:none;}.cls-2{clip-path:url(#clip-path);}.cls-3{fill:#00ab52;}.cls-4{fill:#009560;}.cls-5{fill:#007278;}.cls-6{fill:#fff;}</style><clipPath id="clip-path"><rect class="cls-1" width="299.98" height="55.11"/></clipPath></defs><title>Artboard 1</title><g class="cls-2"><path class="cls-3" d="M300,6.45A6.16,6.16,0,1,1,293.83.3,6.15,6.15,0,0,1,300,6.45"/><path class="cls-3" d="M300,37.15A6.16,6.16,0,1,1,293.83,31,6.15,6.15,0,0,1,300,37.15"/><path class="cls-3" d="M5,23.36a4.46,4.46,0,0,1-.88-.09A4.68,4.68,0,0,1,.38,17.8,21.68,21.68,0,0,1,21.66.21a4.68,4.68,0,0,1,0,9.36,12.3,12.3,0,0,0-12.08,10A4.68,4.68,0,0,1,5,23.36"/><path class="cls-4" d="M6.12,33.4a4.67,4.67,0,0,1-4.28-2.79A21.48,21.48,0,0,1,0,21.87,22.26,22.26,0,0,1,.38,17.8a4.68,4.68,0,0,1,9.2,1.75,12,12,0,0,0-.22,2.32,12.19,12.19,0,0,0,1,5A4.68,4.68,0,0,1,6.12,33.4"/><path class="cls-5" d="M15.19,42.25a4.7,4.7,0,0,1-1.78-.35A21.59,21.59,0,0,1,1.84,30.61a4.68,4.68,0,1,1,8.56-3.78A12.44,12.44,0,0,0,17,33.25a4.68,4.68,0,0,1-1.79,9"/><path class="cls-6" d="M81.34,2.92a21.72,21.72,0,0,0-11-2.85A21.26,21.26,0,0,0,59.49,2.93a21,21,0,0,0-7.73,7.8,21.83,21.83,0,0,0-2.85,11V50.32a4.62,4.62,0,0,0,1.38,3.47,4.76,4.76,0,0,0,3.41,1.32,4.56,4.56,0,0,0,4.78-4.79V38.11a19.15,19.15,0,0,0,4.92,3.36,19.46,19.46,0,0,0,8.48,1.89,19.22,19.22,0,0,0,10.24-2.83,19.9,19.9,0,0,0,7.21-7.78,23.32,23.32,0,0,0,2.61-11,22,22,0,0,0-2.81-11,20.67,20.67,0,0,0-7.79-7.82M81,28.38A12.24,12.24,0,0,1,76.62,33h0a12.39,12.39,0,0,1-12.46,0,12,12,0,0,1-4.37-4.61,13.72,13.72,0,0,1-1.59-6.64,14,14,0,0,1,1.59-6.68,12.17,12.17,0,0,1,16.84-4.64A12.18,12.18,0,0,1,81,15.08a13.75,13.75,0,0,1,1.63,6.67A13.51,13.51,0,0,1,81,28.38"/><path class="cls-6" d="M128.78,2.75A19.82,19.82,0,0,0,118.36.07a21.54,21.54,0,0,0-10.89,2.78A19.54,19.54,0,0,0,100,10.6a23,23,0,0,0-2.69,11.15,21.91,21.91,0,0,0,2.85,11.14,20.3,20.3,0,0,0,7.94,7.71,23.62,23.62,0,0,0,11.43,2.76A23.41,23.41,0,0,0,127,42a21.47,21.47,0,0,0,6.58-3.42,3.69,3.69,0,0,0,1.59-3,4.51,4.51,0,0,0-4.57-4.26,4.82,4.82,0,0,0-3.06,1,13,13,0,0,1-3.7,1.86A14.21,14.21,0,0,1,110.53,32a11.86,11.86,0,0,1-4.15-6.66h27.11a4.37,4.37,0,0,0,3.14-1.21,4.1,4.1,0,0,0,1.27-3.06,24.37,24.37,0,0,0-2.33-10.85,17.76,17.76,0,0,0-6.79-7.48m-22.3,14.67a12,12,0,0,1,3.71-6.24,12,12,0,0,1,8.17-2.73,9.87,9.87,0,0,1,7.28,2.7,11.76,11.76,0,0,1,3.25,6.27Z"/><path class="cls-6" d="M175.22,2.35h0A20.07,20.07,0,0,0,165.51,0a19.86,19.86,0,0,0-7.37,1.37A18.09,18.09,0,0,0,153.7,3.9a4.53,4.53,0,0,0-1.2-2.2,5.1,5.1,0,0,0-6.86,0,4.62,4.62,0,0,0-1.39,3.47V38.35a4.87,4.87,0,0,0,8.26,3.41,4.73,4.73,0,0,0,1.32-3.41v-21a7.44,7.44,0,0,1,1.28-4.28A9.22,9.22,0,0,1,158.75,10,11.72,11.72,0,0,1,164,8.82a11.05,11.05,0,0,1,7.92,2.82c1.95,1.85,2.93,4.68,2.93,8.4V38.35a4.79,4.79,0,1,0,9.58,0V20A22.55,22.55,0,0,0,182,9.26a16.77,16.77,0,0,0-6.8-6.91"/><path class="cls-6" d="M230.35,1.63a5.11,5.11,0,0,0-6.87,0,4.63,4.63,0,0,0-1.38,3.46v21a7.49,7.49,0,0,1-1.28,4.29,9.23,9.23,0,0,1-3.64,3.09,11.85,11.85,0,0,1-5.27,1.16A10.89,10.89,0,0,1,204,31.79c-2-1.85-2.93-4.68-2.93-8.4V5.08a4.84,4.84,0,0,0-8.21-3.41,4.62,4.62,0,0,0-1.37,3.41V23.39a22.49,22.49,0,0,0,2.43,10.78,16.77,16.77,0,0,0,6.8,6.91,20.07,20.07,0,0,0,9.71,2.35,19.86,19.86,0,0,0,7.37-1.37,17.69,17.69,0,0,0,4.45-2.54,4.55,4.55,0,0,0,1.23,2.17,5,5,0,0,0,6.89,0,4.75,4.75,0,0,0,1.32-3.4V5.08a4.72,4.72,0,0,0-1.33-3.45Z"/><path class="cls-6" d="M278.93,10.74a20.71,20.71,0,0,0-7.78-7.82,21.74,21.74,0,0,0-11-2.85,21.27,21.27,0,0,0-10.9,2.86,21,21,0,0,0-7.73,7.8,21.83,21.83,0,0,0-2.85,11V50.32a4.62,4.62,0,0,0,1.38,3.47,4.76,4.76,0,0,0,3.41,1.32,4.58,4.58,0,0,0,4.79-4.79V38.11a18.93,18.93,0,0,0,4.91,3.36,19.46,19.46,0,0,0,8.48,1.89,19.22,19.22,0,0,0,10.24-2.83,19.9,19.9,0,0,0,7.21-7.78,23.34,23.34,0,0,0,2.61-11,22,22,0,0,0-2.81-11m-8.1,17.64A12.24,12.24,0,0,1,266.42,33h0A12.41,12.41,0,0,1,254,33a12,12,0,0,1-4.37-4.61A13.72,13.72,0,0,1,248,21.75a14.11,14.11,0,0,1,1.59-6.68A12.05,12.05,0,0,1,254,10.43a12.41,12.41,0,0,1,12.47,0,12.18,12.18,0,0,1,4.41,4.65,13.75,13.75,0,0,1,1.63,6.67,13.51,13.51,0,0,1-1.63,6.63"/><path class="cls-6" d="M21.66,43.53a21.56,21.56,0,0,1-8.25-1.63A4.68,4.68,0,0,1,17,33.25,12.3,12.3,0,1,0,21.66,9.57a4.68,4.68,0,1,1,0-9.36,21.66,21.66,0,0,1,0,43.32"/></g></svg>